<svg version="1.1" xmlns="http://www.w3.org/2000/svg" xmlns:xlink="http://www.w3.org/1999/xlink" width="119.6" height="390.68842" viewBox="0,0,119.6,390.68842"><g transform="translate(-156.51041,26.15078)"><g data-paper-data="{&quot;isPaintingLayer&quot;:true}" fill-rule="nonzero" stroke-width="0" stroke-linecap="round" stroke-linejoin="miter" stroke-miterlimit="10" stroke-dasharray="" stroke-dashoffset="0" style="mix-blend-mode: normal"><g><g><path d="M228.96256,-26.11786l-42.37499,37.05785l23.60921,10.78691l57.91364,29.41711l-44.38636,35.54567l41.00454,22.21292l-50.72727,42.92497l-13.43648,-4.71203l1.60011,-1.29147l38.89091,-32.41886l5.91819,-5.40314l-38.89091,-20.1117l39.31364,-31.81851l-80.74091,-40.04828l-8.9433,-4.59945l48.74999,-36.55352z" fill="#ffecbb" stroke="#000000"/><path d="M212.15575,206.29555l2.04545,-54.7989l50.45455,-42.27369l-0.34091,38.24072z" fill="#ffd773" stroke="#fff2d1"/><path d="M213.86029,151.8284l-1.70454,54.70925l-12.95454,-5.0836l0.68182,-54.22509z" fill="#ffd773" stroke="#000000"/><path d="M246.92848,108.25465l-36.13637,30.50162v-1.45245l-2.72728,-49.38357z" fill="#ffd773" stroke="#000000"/><path d="M267.72392,51.6088l-2.38636,57.61416l-41.59091,-22.27102z" fill="#ffd773" stroke="#000000"/><path d="M248.11987,55.52024l-41.16029,33.57216l3.33732,48.97586l-9.45575,9.08423l-1.66866,48.18592l-3.55981,-8.20724l-39.10227,-175.60214z" fill="#ffd773" stroke="#000000"/><path d="M228.09594,-26.15078l1.11244,56.48022l-42.82895,-19.74833z" fill="#ffd773" stroke="#000000"/></g><g><path d="M236.96256,131.88214l-42.375,37.05785l23.60921,10.78692l57.91364,29.41711l-44.38636,35.54566l41.00455,22.21292l-50.72727,42.92497l-13.43648,-4.71203l1.60012,-1.29146l38.89091,-32.41886l5.91818,-5.40314l-38.89091,-20.1117l39.31364,-31.81851l-80.74091,-40.04828l-8.9433,-4.59945l48.75,-36.55352z" fill="#ffecbb" stroke="#000000"/><path d="M220.15575,364.29556l2.04545,-54.7989l50.45455,-42.27369l-0.34091,38.24072z" fill="#ffd773" stroke="#fff2d1"/><path d="M221.86029,309.82839l-1.70454,54.70924l-12.95454,-5.0836l0.68182,-54.22509z" fill="#ffd773" stroke="#000000"/><path d="M254.92848,266.25465l-36.13637,30.50161v-1.45245l-2.72728,-49.38356z" fill="#ffd773" stroke="#000000"/><path d="M275.72392,209.60881l-2.38636,57.61415l-41.59091,-22.27102z" fill="#ffd773" stroke="#000000"/><path d="M256.11987,213.52025l-41.16029,33.57216l3.33732,48.97586l-9.45574,9.08423l-1.66866,48.18593l-3.55981,-8.20725l-39.10227,-175.60214z" fill="#ffd773" stroke="#000000"/><path d="M236.09594,131.84922l1.11244,56.48022l-42.82895,-19.74833z" fill="#ffd773" stroke="#000000"/></g></g></g></g></svg>