<svg version="1.1" xmlns="http://www.w3.org/2000/svg" xmlns:xlink="http://www.w3.org/1999/xlink" width="213.43292" height="312.78951" viewBox="0,0,213.43292,312.78951"><g transform="translate(-162.06472,-31.36021)"><g data-paper-data="{&quot;isPaintingLayer&quot;:true}" fill-rule="nonzero" stroke="#000000" stroke-width="0" stroke-linecap="round" stroke-linejoin="miter" stroke-miterlimit="10" stroke-dasharray="" stroke-dashoffset="0" style="mix-blend-mode: normal"><g><g><g><g><g><path d="M210.56508,55.06705l-46.64516,-0.70865l14.31158,-8.53602l49.03042,0.16106z" fill="#f4f4f4"/><path d="M210.83011,54.84157l-0.53006,20.93741l-48.23533,-1.12739l1.06011,-20.29319z" fill="#e6e6e6"/><path d="M210.30005,55.00263l17.49194,-9.01919l-0.53006,21.90375l-17.2269,8.05286z" fill="#fafafa"/></g><g><path d="M178.33057,46.01828l27.2,-14l14.4,-0.4l-27.2,14.4z" fill="#f4f4f4"/><path d="M219.6467,45.55377l-25.16129,-0.32258l25.80645,-13.87097z" fill="#fafafa"/></g></g><g><g><path d="M218.14573,68.77673l-46.64516,-0.70865l14.31158,-8.53602l49.03042,0.16106z" fill="#f4f4f4"/><path d="M218.41076,68.55124l-0.53006,20.93741l-48.23533,-1.12739l1.06011,-20.29319z" fill="#e6e6e6"/><path d="M217.8807,68.71231l17.49194,-9.01919l-0.53006,21.90375l-17.2269,8.05286z" fill="#fafafa"/></g><g><path d="M185.91122,59.72796l27.2,-14l14.4,-0.4l-27.2,14.4z" fill="#f4f4f4"/><path d="M227.22735,59.26344l-25.16129,-0.32258l25.80645,-13.87097z" fill="#fafafa"/></g></g></g><g><g><g><path d="M226.06508,82.94204l-46.64516,-0.70865l14.31158,-8.53602l49.03042,0.16106z" fill="#f4f4f4"/><path d="M226.33011,82.71657l-0.53006,20.93741l-48.23533,-1.12739l1.06011,-20.29319z" fill="#e6e6e6"/><path d="M225.80005,82.87762l17.49194,-9.01919l-0.53006,21.90375l-17.2269,8.05286z" fill="#fafafa"/></g><g><path d="M193.83057,73.89328l27.2,-14l14.4,-0.4l-27.2,14.4z" fill="#f4f4f4"/><path d="M235.1467,73.42877l-25.16129,-0.32258l25.80645,-13.87097z" fill="#fafafa"/></g></g><g><g><path d="M233.64573,96.65173l-46.64516,-0.70865l14.31158,-8.53602l49.03042,0.16106z" fill="#f4f4f4"/><path d="M233.91076,96.42625l-0.53006,20.93741l-48.23533,-1.12739l1.06011,-20.29319z" fill="#e6e6e6"/><path d="M233.3807,96.58731l17.49194,-9.01919l-0.53006,21.90375l-17.2269,8.05286z" fill="#fafafa"/></g><g><path d="M201.41122,87.60296l27.2,-14l14.4,-0.4l-27.2,14.4z" fill="#f4f4f4"/><path d="M242.72735,87.13844l-25.16129,-0.32258l25.80645,-13.87097z" fill="#fafafa"/></g></g></g></g><g><g><g><g><g><path d="M241.56508,116.06705l-46.64516,-0.70865l14.31158,-8.53602l49.03042,0.16106z" fill="#f4f4f4"/><path d="M241.83011,115.84157l-0.53006,20.93741l-48.23533,-1.12739l1.06011,-20.29319z" fill="#e6e6e6"/><path d="M241.30005,116.00263l17.49194,-9.01919l-0.53006,21.90375l-17.2269,8.05286z" fill="#fafafa"/></g><g><path d="M209.33057,107.01828l27.2,-14l14.4,-0.4l-27.2,14.4z" fill="#f4f4f4"/><path d="M250.6467,106.55377l-25.16129,-0.32258l25.80645,-13.87097z" fill="#fafafa"/></g></g><g><g><path d="M249.14573,129.77673l-46.64516,-0.70865l14.31158,-8.53602l49.03042,0.16106z" fill="#f4f4f4"/><path d="M249.41076,129.55125l-0.53006,20.93741l-48.23533,-1.12739l1.06011,-20.29319z" fill="#e6e6e6"/><path d="M248.8807,129.7123l17.49194,-9.01919l-0.53006,21.90375l-17.2269,8.05286z" fill="#fafafa"/></g><g><path d="M216.91122,120.72796l27.2,-14l14.4,-0.4l-27.2,14.4z" fill="#f4f4f4"/><path d="M258.22735,120.26344l-25.16129,-0.32258l25.80645,-13.87097z" fill="#fafafa"/></g></g></g><g><g><g><path d="M257.06508,143.94205l-46.64516,-0.70865l14.31158,-8.53602l49.03042,0.16106z" fill="#f4f4f4"/><path d="M257.33011,143.71657l-0.53006,20.93741l-48.23533,-1.12739l1.06011,-20.29319z" fill="#e6e6e6"/><path d="M256.80005,143.87763l17.49194,-9.01919l-0.53006,21.90375l-17.2269,8.05286z" fill="#fafafa"/></g><g><path d="M224.83057,134.89327l27.2,-14l14.4,-0.4l-27.2,14.4z" fill="#f4f4f4"/><path d="M266.1467,134.42877l-25.16129,-0.32258l25.80645,-13.87097z" fill="#fafafa"/></g></g><g><g><path d="M264.64573,157.65173l-46.64516,-0.70865l14.31158,-8.53602l49.03042,0.16106z" fill="#f4f4f4"/><path d="M264.91076,157.42625l-0.53006,20.93741l-48.23533,-1.12739l1.06011,-20.29319z" fill="#e6e6e6"/><path d="M264.3807,157.5873l17.49194,-9.01919l-0.53006,21.90375l-17.2269,8.05286z" fill="#fafafa"/></g><g><path d="M232.41122,148.60296l27.2,-14l14.4,-0.4l-27.2,14.4z" fill="#f4f4f4"/><path d="M273.72735,148.13843l-25.16129,-0.32258l25.80645,-13.87097z" fill="#fafafa"/></g></g></g></g><g><g><g><g><path d="M272.19008,171.69205l-46.64516,-0.70865l14.31158,-8.53602l49.03042,0.16106z" fill="#f4f4f4"/><path d="M272.45511,171.46657l-0.53006,20.93741l-48.23533,-1.12739l1.06011,-20.29319z" fill="#e6e6e6"/><path d="M271.92505,171.62763l17.49194,-9.01919l-0.53006,21.90375l-17.2269,8.05286z" fill="#fafafa"/></g><g><path d="M239.95557,162.64327l27.2,-14l14.4,-0.4l-27.2,14.4z" fill="#f4f4f4"/><path d="M281.2717,162.17877l-25.16129,-0.32258l25.80645,-13.87097z" fill="#fafafa"/></g></g><g><g><path d="M279.77073,185.40173l-46.64516,-0.70865l14.31158,-8.53602l49.03042,0.16106z" fill="#f4f4f4"/><path d="M280.03576,185.17625l-0.53006,20.93741l-48.23533,-1.12739l1.06011,-20.29319z" fill="#e6e6e6"/><path d="M279.5057,185.33731l17.49194,-9.01919l-0.53006,21.90375l-17.2269,8.05286z" fill="#fafafa"/></g><g><path d="M247.53622,176.35296l27.2,-14l14.4,-0.4l-27.2,14.4z" fill="#f4f4f4"/><path d="M288.85235,175.88844l-25.16129,-0.32258l25.80645,-13.87097z" fill="#fafafa"/></g></g></g><g><g><g><path d="M287.69008,199.56705l-46.64516,-0.70865l14.31158,-8.53602l49.03042,0.16106z" fill="#f4f4f4"/><path d="M287.95511,199.34157l-0.53006,20.93741l-48.23533,-1.12739l1.06011,-20.29319z" fill="#e6e6e6"/><path d="M287.42505,199.50263l17.49194,-9.01919l-0.53006,21.90375l-17.2269,8.05286z" fill="#fafafa"/></g><g><path d="M255.45557,190.51828l27.2,-14l14.4,-0.4l-27.2,14.4z" fill="#f4f4f4"/><path d="M296.7717,190.05377l-25.16129,-0.32258l25.80645,-13.87097z" fill="#fafafa"/></g></g><g><g><path d="M295.27073,213.27673l-46.64516,-0.70865l14.31158,-8.53602l49.03042,0.16106z" fill="#f4f4f4"/><path d="M295.53576,213.05125l-0.53006,20.93741l-48.23533,-1.12739l1.06011,-20.29319z" fill="#e6e6e6"/><path d="M295.0057,213.21231l17.49194,-9.01919l-0.53006,21.90375l-17.2269,8.05286z" fill="#fafafa"/></g><g><path d="M263.03622,204.22796l27.2,-14l14.4,-0.4l-27.2,14.4z" fill="#f4f4f4"/><path d="M304.35235,203.76344l-25.16129,-0.32258l25.80645,-13.87097z" fill="#fafafa"/></g></g></g></g></g><g><g><g><g><g><path d="M304.56508,226.06705l-46.64516,-0.70865l14.31158,-8.53602l49.03042,0.16106z" fill="#f4f4f4"/><path d="M304.83011,225.84157l-0.53006,20.93741l-48.23533,-1.12739l1.06011,-20.29319z" fill="#e6e6e6"/><path d="M304.30005,226.00263l17.49194,-9.01919l-0.53006,21.90375l-17.2269,8.05286z" fill="#fafafa"/></g><g><path d="M272.33056,217.01828l27.2,-14l14.4,-0.4l-27.2,14.4z" fill="#f4f4f4"/><path d="M313.6467,216.55377l-25.16129,-0.32258l25.80645,-13.87097z" fill="#fafafa"/></g></g><g><g><path d="M312.14573,239.77673l-46.64516,-0.70865l14.31158,-8.53602l49.03042,0.16106z" fill="#f4f4f4"/><path d="M312.41076,239.55125l-0.53006,20.93741l-48.23533,-1.12739l1.06011,-20.29319z" fill="#e6e6e6"/><path d="M311.8807,239.71231l17.49194,-9.01919l-0.53006,21.90375l-17.2269,8.05286z" fill="#fafafa"/></g><g><path d="M279.91122,230.72796l27.2,-14l14.4,-0.4l-27.2,14.4z" fill="#f4f4f4"/><path d="M321.22735,230.26344l-25.16129,-0.32258l25.80645,-13.87097z" fill="#fafafa"/></g></g></g><g><g><g><path d="M320.06508,253.94205l-46.64516,-0.70865l14.31158,-8.53602l49.03042,0.16106z" fill="#f4f4f4"/><path d="M320.33011,253.71657l-0.53006,20.93741l-48.23533,-1.12739l1.06011,-20.29319z" fill="#e6e6e6"/><path d="M319.80005,253.87763l17.49194,-9.01919l-0.53006,21.90375l-17.2269,8.05286z" fill="#fafafa"/></g><g><path d="M287.83056,244.89328l27.2,-14l14.4,-0.4l-27.2,14.4z" fill="#f4f4f4"/><path d="M329.1467,244.42877l-25.16129,-0.32258l25.80645,-13.87097z" fill="#fafafa"/></g></g><g><g><path d="M327.64573,267.65173l-46.64516,-0.70865l14.31158,-8.53602l49.03042,0.16106z" fill="#f4f4f4"/><path d="M327.91076,267.42625l-0.53006,20.93741l-48.23533,-1.12739l1.06011,-20.29319z" fill="#e6e6e6"/><path d="M327.3807,267.58731l17.49194,-9.01919l-0.53006,21.90375l-17.2269,8.05286z" fill="#fafafa"/></g><g><path d="M295.41122,258.60294l27.2,-14l14.4,-0.4l-27.2,14.4z" fill="#f4f4f4"/><path d="M336.72735,258.13844l-25.16129,-0.32258l25.80645,-13.87097z" fill="#fafafa"/></g></g></g></g><g><g><g><g><path d="M335.19008,281.69205l-46.64516,-0.70865l14.31158,-8.53602l49.03042,0.16106z" fill="#f4f4f4"/><path d="M335.45511,281.46657l-0.53006,20.93741l-48.23533,-1.12739l1.06011,-20.29319z" fill="#e6e6e6"/><path d="M334.92505,281.62763l17.49194,-9.01919l-0.53006,21.90375l-17.2269,8.05286z" fill="#fafafa"/></g><g><path d="M302.95556,272.64328l27.2,-14l14.4,-0.4l-27.2,14.4z" fill="#f4f4f4"/><path d="M344.2717,272.17877l-25.16129,-0.32258l25.80645,-13.87097z" fill="#fafafa"/></g></g><g><g><path d="M342.77073,295.40173l-46.64516,-0.70865l14.31158,-8.53602l49.03042,0.16106z" fill="#f4f4f4"/><path d="M343.03576,295.17625l-0.53006,20.93741l-48.23533,-1.12739l1.06011,-20.29319z" fill="#e6e6e6"/><path d="M342.5057,295.33731l17.49194,-9.01919l-0.53006,21.90375l-17.2269,8.05286z" fill="#fafafa"/></g><g><path d="M310.53622,286.35294l27.2,-14l14.4,-0.4l-27.2,14.4z" fill="#f4f4f4"/><path d="M351.85235,285.88844l-25.16129,-0.32258l25.80645,-13.87097z" fill="#fafafa"/></g></g></g><g><g><g><path d="M350.69008,309.56705l-46.64516,-0.70865l14.31158,-8.53602l49.03042,0.16106z" fill="#f4f4f4"/><path d="M350.95511,309.34157l-0.53006,20.93741l-48.23533,-1.12739l1.06011,-20.29319z" fill="#e6e6e6"/><path d="M350.42505,309.50263l17.49194,-9.01919l-0.53006,21.90375l-17.2269,8.05286z" fill="#fafafa"/></g><g><path d="M318.45556,300.51828l27.2,-14l14.4,-0.4l-27.2,14.4z" fill="#f4f4f4"/><path d="M359.7717,300.05377l-25.16129,-0.32258l25.80645,-13.87097z" fill="#fafafa"/></g></g><g><g><path d="M358.27073,323.27673l-46.64516,-0.70865l14.31158,-8.53602l49.03042,0.16106z" fill="#f4f4f4"/><path d="M358.53576,323.05125l-0.53006,20.93741l-48.23533,-1.12739l1.06011,-20.29319z" fill="#e6e6e6"/><path d="M358.0057,323.21231l17.49194,-9.01919l-0.53006,21.90375l-17.2269,8.05286z" fill="#fafafa"/></g><g><path d="M326.03622,314.22794l27.2,-14l14.4,-0.4l-27.2,14.4z" fill="#f4f4f4"/><path d="M367.35235,313.76344l-25.16129,-0.32258l25.80645,-13.87097z" fill="#fafafa"/></g></g></g></g></g></g></g></g></svg>