<svg version="1.1" xmlns="http://www.w3.org/2000/svg" xmlns:xlink="http://www.w3.org/1999/xlink" width="24.45387" height="89.38017" viewBox="0,0,24.45387,89.38017"><g transform="translate(-164.17152,-77.88898)"><g data-paper-data="{&quot;isPaintingLayer&quot;:true}" fill-rule="nonzero" stroke-linecap="round" stroke-linejoin="miter" stroke-miterlimit="10" stroke-dasharray="" stroke-dashoffset="0" style="mix-blend-mode: normal"><g stroke="#000000" stroke-width="0"><path d="M164.17152,158.27165l12.09823,-68.31973l-3.60372,70.78486z" fill="#10ea00"/><path d="M172.40861,160.73679l3.86114,-70.43271l4.63337,70.08053z" fill="#65ff5a"/><path d="M181.16052,160.38464l-4.89078,-69.02404l12.35565,64.79809z" fill="#11ff00"/></g><path d="M177.09137,166.51915l0.19231,-5.44379" fill="none" stroke="#940000" stroke-width="1.5"/><g stroke="#000000" stroke-width="0"><path d="M165.95723,140.04443l10.21318,-57.67467l-3.04221,59.75571z" fill="#65ff5a"/><path d="M172.91089,142.12548l3.25952,-59.45842l3.91143,59.16114z" fill="#65ff5a"/><path d="M180.29914,141.82819l-4.12874,-58.26924l10.43049,54.70175z" fill="#11ff00"/></g><g stroke="#000000" stroke-width="0"><path d="M169.17152,117.93405l7.09128,-40.04507l-2.11229,41.49z" fill="#10ea00"/><path d="M173.99963,119.37898l2.26317,-41.28359l2.71581,41.07716z" fill="#10ff00"/><path d="M179.12949,119.17256l-2.86669,-40.4579l7.24217,37.98089z" fill="#11ff00"/></g></g></g></svg>