<svg version="1.1" xmlns="http://www.w3.org/2000/svg" xmlns:xlink="http://www.w3.org/1999/xlink" width="14.87692" height="14.55238" viewBox="0,0,14.87692,14.55238"><g transform="translate(-233.37235,-171.93068)"><g data-paper-data="{&quot;isPaintingLayer&quot;:true}" fill-rule="nonzero" stroke="none" stroke-width="0" stroke-linecap="butt" stroke-linejoin="miter" stroke-miterlimit="10" stroke-dasharray="" stroke-dashoffset="0" style="mix-blend-mode: normal"><g><path d="M235.57634,179.32323c0,-2.91628 2.36411,-5.28039 5.28039,-5.28039c2.91628,0 5.28039,2.36411 5.28039,5.28039c0,2.91628 -2.36411,5.28039 -5.28039,5.28039c-2.91628,0 -5.28039,-2.36411 -5.28039,-5.28039zM244.30046,179.18548c0,-1.87656 -1.52125,-3.39781 -3.39781,-3.39781c-1.87656,0 -3.39781,1.52125 -3.39781,3.39781c0,0.01533 0.0001,0.03064 0.0003,0.04592c-0.0002,0.01528 -0.0003,0.03059 -0.0003,0.04592c0,1.87656 1.52125,3.39781 3.39781,3.39781c1.87656,0 3.39781,-1.52125 3.39781,-3.39781c0,-0.01533 -0.0001,-0.03064 -0.0003,-0.04592c0.0002,-0.01528 0.0003,-0.03059 0.0003,-0.04592z" fill="#969696"/><g><path d="M240.16798,174.86934v-2.93865h2.20399v2.93865z" fill="#969696"/><path d="M243.44263,175.34768l1.62325,-2.44964l1.83723,1.21744l-1.62325,2.44964z" fill="#969696"/><path d="M235.92852,177.16204l-1.62325,-2.44964l1.83723,-1.21744l1.62325,2.44964z" data-paper-data="{&quot;index&quot;:null}" fill="#969696"/></g><g data-paper-data="{&quot;index&quot;:null}" fill="#969696"><path d="M242.32605,183.54442v2.93865h-2.20399v-2.93865z"/><path d="M245.23394,181.84863l1.62325,2.44964l-1.83723,1.21744l-1.62325,-2.44964z"/><path d="M237.71983,182.46916l-1.62325,2.44964l-1.83723,-1.21744l1.62325,-2.44964z" data-paper-data="{&quot;index&quot;:null}"/></g><path d="M233.37235,179.82831v-2.02032h4.46573c-0.21359,0.44468 -0.33325,0.94303 -0.33325,1.46933c0,0.18761 0.0152,0.37166 0.04445,0.551z" fill="#969696"/><path d="M248.24927,177.80799v2.02032h-3.99326c0.02924,-0.17934 0.04445,-0.36339 0.04445,-0.551c0,-0.5263 -0.11966,-1.02464 -0.33325,-1.46933z" fill="#969696"/></g></g></g></svg>