<svg version="1.1" xmlns="http://www.w3.org/2000/svg" xmlns:xlink="http://www.w3.org/1999/xlink" width="57.05347" height="160.95234" viewBox="0,0,57.05347,160.95234"><g transform="translate(-241.96656,-71.16004)"><g data-paper-data="{&quot;isPaintingLayer&quot;:true}" fill-rule="nonzero" stroke-width="0" stroke-linecap="round" stroke-linejoin="miter" stroke-miterlimit="10" stroke-dasharray="" stroke-dashoffset="0" style="mix-blend-mode: normal"><g><g fill="#722e2e"><path d="M267.17476,221.61194l1.15718,-2.62511l3.03761,-0.40386l-1.22951,2.82704z" stroke="#722e2e"/><path d="M267.03011,221.61194v10.50044l3.3269,-0.20193l-0.21697,-10.29851z" stroke="#000000"/><path d="M270.14004,221.41001l1.30183,-2.82704l-0.21697,10.9043l-0.86789,2.62511z" stroke="#000000"/></g><g stroke="#000000"><g><path d="M241.96656,220.79503l26.65363,-131.56683l15.87876,132.13394z" fill="#009259"/><path d="M284.49895,220.79503l-15.87876,-129.86554l29.48912,122.49326z" fill="#009259"/><path d="M246.89701,199.40377l10.42461,-8.75667l3.75286,9.17365l9.59064,-13.34349l3.33587,10.00762l5.83778,-8.75666l5.00381,34.1927h-42.53239z" fill="#ffffff"/><path d="M285.25955,220.66996l13.76048,-6.67175l-5.83778,-20.43222v7.50572l-5.83778,-6.67175l0.83397,9.17365l-7.08873,-9.17365c0,0 0.48211,3.03732 0.86287,5.43607c0.74539,4.696 3.30697,20.83393 3.30697,20.83393z" fill="#ffffff"/></g><g><path d="M247.96656,179.06597l20.23957,-99.90593l12.05761,100.33656z" fill="#009259"/><path d="M280.26374,179.06597l-12.05761,-98.61404l22.39271,93.01586z" fill="#009259"/><path d="M251.71052,162.82241l7.91597,-6.64942l2.84976,6.96606l7.28269,-10.13245l2.53311,7.59933l4.43295,-6.64941l3.79967,25.96439h-32.29718z" fill="#ffffff"/><path d="M280.84131,178.971l10.44908,-5.06622l-4.43295,-15.51531v5.6995l-4.43294,-5.06623l0.63328,6.96606l-5.38287,-6.96606c0,0 0.36609,2.30641 0.65522,4.1279c0.56602,3.56592 2.51117,15.82035 2.51117,15.82035z" fill="#ffffff"/></g><g><path d="M252.96656,146.27809l15.21788,-75.11805l9.06597,75.44184z" fill="#009259"/><path d="M277.25041,146.27809l-9.06597,-74.14669l16.83681,69.9375z" fill="#009259"/><path d="M255.7816,134.06476l5.95192,-4.99961l2.1427,5.23769l5.47577,-7.61846l1.90461,5.71384l3.33308,-4.99961l2.85692,19.52231h-24.28385z" fill="#ffffff"/><path d="M277.68469,146.20668l7.85654,-3.80922l-3.33308,-11.66578v4.28539l-3.33308,-3.80924l0.47616,5.2377l-4.04731,-5.2377c0,0 0.27525,1.73416 0.49265,3.10372c0.42559,2.68117 1.88812,11.89513 1.88812,11.89513z" fill="#ffffff"/></g></g></g></g></g></svg>