<svg version="1.1" xmlns="http://www.w3.org/2000/svg" xmlns:xlink="http://www.w3.org/1999/xlink" width="59.28471" height="187.98206" viewBox="0,0,59.28471,187.98206"><g transform="translate(-210.35765,-82.84438)"><g data-paper-data="{&quot;isPaintingLayer&quot;:true}" fill-rule="nonzero" stroke-linecap="round" stroke-linejoin="miter" stroke-miterlimit="10" stroke-dasharray="" stroke-dashoffset="0" style="mix-blend-mode: normal"><g stroke="#000000" stroke-width="0"><path d="M210.35765,245.76395l28.04785,-141.46084l-13.21278,151.63845z" fill="#af2c00"/><path d="M224.42547,255.78468l13.46792,-149.07636l2.10868,153.67534z" fill="#982600"/><path d="M239.47226,260.15292l-1.60475,-151.25271l17.35454,150.10474z" fill="#8b2300"/><path d="M255.15784,258.24136l-18.00359,-149.82506l32.48811,137.94426z" data-paper-data="{&quot;index&quot;:null}" fill="#cc3300"/></g><g stroke="#000000" stroke-width="0"><path d="M215.72194,201.303l21.61633,-109.02312l-10.18302,116.86695z" fill="#af2c00"/><path d="M226.56394,209.02592l10.37966,-114.89236l1.62515,118.43678z" fill="#8b2300"/><path d="M238.16042,212.39251l-1.23677,-116.56967l13.37506,115.68493z" fill="#8b2300"/><path d="M250.24922,210.91927l-13.87527,-115.46938l25.03842,106.31292z" data-paper-data="{&quot;index&quot;:null}" fill="#cc3300"/></g><g stroke="#000000" stroke-width="0"><path d="M221.41386,161.20289l15.53637,-78.35851l-7.31887,83.99614z" fill="#af2c00"/><path d="M229.20635,166.75361l7.4602,-82.57694l1.16805,85.12441z" fill="#982600"/><path d="M237.54113,169.17328l-0.88891,-83.78247l9.6131,83.14659z" fill="#8b2300"/><path d="M246.22975,168.11442l-9.97262,-82.99166l17.99594,76.4106z" data-paper-data="{&quot;index&quot;:null}" fill="#cc3300"/></g><path d="M239.142,260.00332v9.57312" fill="none" stroke="#6a1b00" stroke-width="2.5"/></g></g></svg>