<svg version="1.1" xmlns="http://www.w3.org/2000/svg" xmlns:xlink="http://www.w3.org/1999/xlink" width="24.45387" height="76.52303" viewBox="0,0,24.45387,76.52303"><g transform="translate(-164.17152,-90.74613)"><g data-paper-data="{&quot;isPaintingLayer&quot;:true}" fill-rule="nonzero" stroke-linecap="round" stroke-linejoin="miter" stroke-miterlimit="10" stroke-dasharray="" stroke-dashoffset="0" style="mix-blend-mode: normal"><g><g stroke="#000000" stroke-width="0"><path d="M164.17152,159.46808l12.09823,-58.40892l-3.60372,60.51644z" fill="#10ea00"/><path d="M172.40861,161.57562l3.86114,-60.21538l4.63337,59.91429z" fill="#65ff5a"/><path d="M181.16052,161.27455l-4.89078,-59.01105l12.35565,55.39814z" fill="#11ff00"/></g><path d="M177.09137,166.51916l0.19231,-4.65409" fill="none" stroke="#940000" stroke-width="1.5"/><g stroke="#000000" stroke-width="0"><path d="M165.95723,143.88499l10.21318,-49.3081l-3.04221,51.08725z" fill="#65ff5a"/><path d="M172.91089,145.66415l3.25952,-50.83308l3.91143,50.57892z" fill="#65ff5a"/><path d="M180.29914,145.40999l-4.12874,-49.81642l10.43049,46.76644z" fill="#11ff00"/></g><g stroke="#000000" stroke-width="0"><path d="M169.17152,124.98206l7.09128,-34.23593l-2.11229,35.47125z" fill="#10ea00"/><path d="M173.99963,126.21738l2.26317,-35.29478l2.71581,35.11831z" fill="#10ff00"/><path d="M179.12949,126.04091l-2.86669,-34.58888l7.24217,32.47119z" fill="#11ff00"/></g></g></g></g></svg>