<svg version="1.1" xmlns="http://www.w3.org/2000/svg" xmlns:xlink="http://www.w3.org/1999/xlink" width="24.45387" height="60.4516" viewBox="0,0,24.45387,60.4516"><g transform="translate(-164.17152,-106.81756)"><g data-paper-data="{&quot;isPaintingLayer&quot;:true}" fill-rule="nonzero" stroke-linecap="round" stroke-linejoin="miter" stroke-miterlimit="10" stroke-dasharray="" stroke-dashoffset="0" style="mix-blend-mode: normal"><g><g stroke="#000000" stroke-width="0"><path d="M164.17152,160.96361l12.09823,-46.02041l-3.60372,47.68093z" fill="#10ea00"/><path d="M172.40861,162.62414l3.86114,-47.44372l4.63337,47.20649z" fill="#65ff5a"/><path d="M181.16052,162.38693l-4.89078,-46.49483l12.35565,43.64822z" fill="#11ff00"/></g><path d="M177.28368,162.8522l-0.19231,3.66696" fill="none" stroke="#940000" stroke-width="1.5"/><g stroke="#000000" stroke-width="0"><path d="M165.95723,148.68569l10.21318,-38.84987l-3.04221,40.25167z" fill="#65ff5a"/><path d="M172.91089,150.08749l3.25952,-40.0514l3.91143,39.85115z" fill="#65ff5a"/><path d="M180.29914,149.88724l-4.12874,-39.25037l10.43049,36.8473z" fill="#11ff00"/></g><g stroke="#000000" stroke-width="0"><path d="M169.17152,133.79206l7.09128,-26.9745l-2.11229,27.94781z" fill="#10ea00"/><path d="M173.99963,134.76537l2.26317,-27.80877l2.71581,27.66973z" fill="#10ff00"/><path d="M179.12949,134.62633l-2.86669,-27.25259l7.24217,25.58406z" fill="#11ff00"/></g></g></g></g></svg>